# xmcd
#
# Track frame offsets:
#	150
#	16252
#	29500
#	51515
#	63490
#	77520
#	84822
#	98180
#	110325
#	130842
#	143017
#
# Disc length: 2054 seconds
#
# Revision: 2
# Processed by: cddbd v1.5.2PL0 Copyright (c) Steve Scherf et al.
# Submitted via: audiograbber 1.83.01
#
DISCID=8608040b
DTITLE=Freakwater - Feels Like The Third Time
DYEAR=1992
DGENRE=Country
TTITLE0=Drunk Friend
TTITLE1=Little Shoes
TTITLE2=Forgettable Song
TTITLE3=Crazy Man
TTITLE4=Pale Horse
TTITLE5=You Make Me
TTITLE6=You've Never Been This Far Before
TTITLE7=Dream Girl
TTITLE8=Sleeping On Hold
TTITLE9=Amelia Earhart
TTITLE10=Are You Ready
EXTD=
EXTT0=
EXTT1=
EXTT2=
EXTT3=
EXTT4=
EXTT5=
EXTT6=
EXTT7=
EXTT8=
EXTT9=
EXTT10=
PLAYORDER=
